<svg xmlns="http://www.w3.org/2000/svg" xmlns:xlink="http://www.w3.org/1999/xlink" width="105" height="141" viewBox="0 0 105 141"><defs><path id="jm3qb" d="M540.8 1005.46l3.96 40.16 36.75-16.66s-7.82-26.45-40.7-23.5z"/><path id="jm3qf" d="M542.66 1034.24s5.79.65 13.14 7.59c7.35 6.93-9.54 7.2-9.54 7.2s-8.73-3.9-8.83-4.72c-.1-.83 2.1-9.96 2.1-9.96"/><path id="jm3qd" d="M617.66 918.42a23.5 23.5 0 0 1 8.6 32.1l-5.5 9.53a23.5 23.5 0 0 1-40.7-23.5l5.5-9.53a23.5 23.5 0 0 1 32.1-8.6z"/><path id="jm3qh" d="M618.6 917.8l20.78 12-13.5 23.39-20.79-12z"/><path id="jm3qc" d="M585.3 927.46s11.18 4.14 21.35 10.01a160.7 160.7 0 0 1 19.36 13.48l-12.5 21.66-40.7-23.5z"/><path id="jm3qj" d="M608.1 936l21.64 12.5-13 22.5-21.65-12.5z"/><path id="jm3qa" d="M574.85 945.33s11.17 4.14 21.35 10.01c10.17 5.88 19.35 13.49 19.35 13.49l-34.04 60.13s-2.96-4.02-8.53-7.23c-6.56-3.8-14.7.74-14.7.74s.09-9.18-7.07-13.32c-5.45-3.14-10.4-3.7-10.4-3.7z"/><path id="jm3ql" d="M602.6 946.44l23.37 13.5-44 76.22-23.38-13.5z"/><clipPath id="jm3qk"><use xlink:href="#jm3qa"/></clipPath><clipPath id="jm3qe"><use xlink:href="#jm3qb"/></clipPath><clipPath id="jm3qi"><use xlink:href="#jm3qc"/></clipPath><clipPath id="jm3qg"><use xlink:href="#jm3qd"/></clipPath></defs><g><g transform="translate(-536 -910)"><g><use fill="#ffecba" xlink:href="#jm3qb"/></g><g clip-path="url(#jm3qe)"><use fill="#393939" xlink:href="#jm3qf"/></g><g><use fill="#e88f8d" xlink:href="#jm3qd"/></g><g clip-path="url(#jm3qg)"><use fill="#d97475" xlink:href="#jm3qh"/></g><g><use fill="#daeaf2" xlink:href="#jm3qc"/></g><g clip-path="url(#jm3qi)"><use fill="#bedae8" xlink:href="#jm3qj"/></g><g><use fill="#f1c40f" xlink:href="#jm3qa"/></g><g clip-path="url(#jm3qk)"><use fill="#f39c12" xlink:href="#jm3ql"/></g></g></g></svg>